<?xml version="1.0" encoding="UTF-8"?>
<svg xmlns="http://www.w3.org/2000/svg" id="Layer_1" data-name="Layer 1" viewBox="0 0 24 24">
  <path d="m21,17.051v-1.551c0-1.93-1.57-3.5-3.5-3.5h-5v-3.051c2.244-.252,4-2.139,4-4.449,0-2.481-2.019-4.5-4.5-4.5s-4.5,2.019-4.5,4.5c0,2.31,1.756,4.197,4,4.449v3.051h-5c-1.93,0-3.5,1.57-3.5,3.5v1.551c-1.692.245-3,1.691-3,3.449,0,1.93,1.57,3.5,3.5,3.5s3.5-1.57,3.5-3.5c0-1.758-1.308-3.204-3-3.449v-1.551c0-1.378,1.121-2.5,2.5-2.5h5v4.051c-1.692.245-3,1.691-3,3.449,0,1.93,1.57,3.5,3.5,3.5s3.5-1.57,3.5-3.5c0-1.758-1.308-3.204-3-3.449v-4.051h5c1.379,0,2.5,1.122,2.5,2.5v1.551c-1.692.245-3,1.691-3,3.449,0,1.93,1.57,3.5,3.5,3.5s3.5-1.57,3.5-3.5c0-1.758-1.308-3.204-3-3.449ZM8.5,4.5c0-1.93,1.57-3.5,3.5-3.5s3.5,1.57,3.5,3.5-1.57,3.5-3.5,3.5-3.5-1.57-3.5-3.5Zm-2.5,16c0,1.378-1.121,2.5-2.5,2.5s-2.5-1.122-2.5-2.5,1.121-2.5,2.5-2.5,2.5,1.122,2.5,2.5Zm8.5,0c0,1.378-1.121,2.5-2.5,2.5s-2.5-1.122-2.5-2.5,1.121-2.5,2.5-2.5,2.5,1.122,2.5,2.5Zm6,2.5c-1.379,0-2.5-1.122-2.5-2.5s1.121-2.5,2.5-2.5,2.5,1.122,2.5,2.5-1.121,2.5-2.5,2.5Z"/>
</svg>
