<svg width="253" height="69" viewBox="0 0 253 69" fill="none" xmlns="http://www.w3.org/2000/svg">
<path d="M22.4 68C14.7667 68 9.11667 66.1834 5.45 62.55C1.81667 58.8834 0 53.2334 0 45.6V22.6C0 14.9 1.81667 9.23336 5.45 5.60003C9.08333 1.93336 14.7 0.133362 22.3 0.200028H34.4C40.6667 0.200028 45.45 1.50003 48.75 4.10003C52.05 6.66669 53.9667 10.7334 54.5 16.3C54.7 17.7 54.4333 18.7667 53.7 19.5C52.9667 20.2334 51.9 20.6 50.5 20.6C47.9667 20.6 46.5 19.2 46.1 16.4C45.7667 13.3334 44.7 11.2667 42.9 10.2C41.1333 9.13336 38.3 8.60003 34.4 8.60003H22.3C18.7667 8.56669 15.9833 8.9667 13.95 9.80003C11.95 10.6334 10.5167 12.0834 9.65 14.15C8.81667 16.1834 8.4 19 8.4 22.6V45.6C8.4 49.1667 8.81667 51.9667 9.65 54C10.5167 56.0334 11.9667 57.4834 14 58.35C16.0333 59.1834 18.8333 59.6 22.4 59.6H34.4C37.5 59.6 39.9167 59.2667 41.65 58.6C43.4167 57.9 44.65 56.6834 45.35 54.95C46.05 53.2167 46.4 50.7667 46.4 47.6V42.9L38.6 42.8C35.8 42.8 34.4 41.4 34.4 38.6C34.4 35.8 35.8 34.4 38.6 34.4L50.6 34.5C53.4 34.5 54.8 35.9 54.8 38.7V47.6C54.8 54.7 53.15 59.8834 49.85 63.15C46.55 66.3834 41.4 68 34.4 68H22.4Z" fill="#8A95A5"/>
<path d="M69.2203 46.1V48.5C69.2203 52.8 70.0036 55.7334 71.5703 57.3C73.137 58.8334 76.087 59.6 80.4203 59.6H88.6203C92.0203 59.6 94.537 59.2834 96.1703 58.65C97.8036 58.0167 98.887 56.9 99.4203 55.3C99.787 54.0334 100.287 53.0667 100.92 52.4C101.587 51.7334 102.587 51.4 103.92 51.4C105.32 51.4 106.387 51.7667 107.12 52.5C107.854 53.2334 108.087 54.3 107.82 55.7C107.087 59.8334 105.12 62.9167 101.92 64.95C98.7203 66.9834 94.287 68 88.6203 68H80.4203C73.787 68 68.8536 66.4 65.6203 63.2C62.4203 60 60.8203 55.1 60.8203 48.5V36.9C60.8203 30.1334 62.4203 25.1667 65.6203 22C68.8536 18.8 73.787 17.2334 80.4203 17.3H88.6203C95.287 17.3 100.22 18.9 103.42 22.1C106.62 25.2667 108.22 30.2 108.22 36.9V41.9C108.22 44.7 106.82 46.1 104.02 46.1H69.2203ZM80.4203 25.7C76.087 25.6334 73.137 26.3834 71.5703 27.95C70.0036 29.5167 69.2203 32.5 69.2203 36.9V37.7H99.8203V36.9C99.8203 32.5334 99.037 29.5834 97.4703 28.05C95.937 26.4834 92.987 25.7 88.6203 25.7H80.4203Z" fill="#8A95A5"/>
<path d="M125.799 68C122.999 68 121.599 66.6 121.599 63.8V21.5C121.599 18.7 122.999 17.3 125.799 17.3C128.599 17.3 129.999 18.7 129.999 21.5V23.15C133.533 19.25 138.733 17.3 145.599 17.3H148.399C155.066 17.3 159.999 18.9 163.199 22.1C166.399 25.3 167.999 30.2334 167.999 36.9V63.8C167.999 66.6 166.599 68 163.799 68C160.999 68 159.599 66.6 159.599 63.8V36.9C159.599 32.5334 158.799 29.5834 157.199 28.05C155.633 26.4834 152.699 25.7 148.399 25.7H145.599C141.599 25.7 138.116 26.1667 135.149 27.1C132.183 28 130.466 29.4334 129.999 31.4V63.8C129.999 66.6 128.599 68 125.799 68Z" fill="#8A95A5"/>
<path d="M179.61 67.6C176.943 66.5667 176.143 64.7334 177.21 62.1L201.01 3.50003C202.01 1.30003 203.577 0.200028 205.71 0.200028H205.91C208.077 0.300029 209.543 1.40003 210.31 3.50003L234.51 62.1C235.577 64.7334 234.81 66.5667 232.21 67.6C229.577 68.6334 227.743 67.8667 226.71 65.3L221.31 52.2H190.16L185.01 65.3C183.977 67.9 182.177 68.6667 179.61 67.6ZM193.46 43.8H217.86L205.41 13.5L193.46 43.8Z" fill="#3B82F6"/>
<path d="M248.612 68C247.178 68 246.112 67.6667 245.412 67C244.745 66.3 244.412 65.2334 244.412 63.8V4.50003C244.412 3.03336 244.745 1.9667 245.412 1.30003C246.112 0.63336 247.178 0.300026 248.612 0.300026C250.078 0.300026 251.145 0.63336 251.812 1.30003C252.478 1.9667 252.812 3.03336 252.812 4.50003V34.15V63.8C252.812 65.2334 252.478 66.3 251.812 67C251.145 67.6667 250.078 68 248.612 68Z" fill="#3B82F6"/>
</svg>
